<?xml version="1.0" encoding="UTF-8"?>
<svg id="Layer_1" data-name="Layer 1" xmlns="http://www.w3.org/2000/svg" viewBox="0 0 456.97 282.47">
  <defs>
    <style>
      .cls-1 {
        letter-spacing: 0em;
      }

      .cls-2 {
        letter-spacing: 0em;
      }

      .cls-3, .cls-4 {
        stroke-width: 0px;
      }

      .cls-3, .cls-5 {
        fill: #010101;
      }

      .cls-6 {
        font-family: Montserrat-Bold, Montserrat;
        font-size: 33.35px;
        font-weight: 700;
      }

      .cls-6, .cls-4 {
        fill: #2d5a9d;
      }

      .cls-7 {
        letter-spacing: -.03em;
      }

      .cls-5 {
        font-family: Montserrat-Regular, Montserrat;
        font-size: 36.72px;
      }

      .cls-8 {
        letter-spacing: 0em;
      }

      .cls-9 {
        letter-spacing: -.02em;
      }
    </style>
  </defs>
  <polygon class="cls-4" points="275.42 185.86 241.67 185.86 393.52 40.95 427.27 40.95 275.42 185.86"/>
  <polygon class="cls-3" points="338.7 86.99 321.57 57.67 291.61 57.67 319.64 104.9 338.7 86.99"/>
  <polygon class="cls-3" points="339.4 130.41 356.64 158.74 386.6 158.74 358.46 112.5 339.4 130.41"/>
  <text class="cls-5" transform="translate(34.04 233.69)"><tspan class="cls-2" x="0" y="0">F</tspan><tspan class="cls-8" x="22.91" y="0">OR </tspan><tspan class="cls-9" x="89.89" y="0">E</tspan><tspan x="113.72" y="0">- </tspan><tspan class="cls-7" x="137.37" y="0">C</tspan><tspan x="162.12" y="0">OMMERCE</tspan></text>
  <path class="cls-3" d="M286.1,58.36H101.41c3.72,3.27,12.24,8.3,16.52,15.42,3.35,5.58,5.36,10.81,6.59,14.93h25.7l-8.41,69.46h28.21l8.41-69.46h125.8l-18.12-30.34Z"/>
  <polygon class="cls-3" points="293.32 129.52 218.71 129.52 219.73 121.09 302.03 121.09 315.67 107.88 308.88 96.51 199.97 96.51 192.46 158.52 263.37 158.52 293.32 129.52"/>
  <path class="cls-3" d="M69.53,53.57c-6.77.03-16.07,1.69-25.31,6.78-12.9,7.11-21.09,18.22-24.73,32.44-8.38,32.77,6.74,61.25,35.31,67.16,10.64,2.2,21.63,2.21,33.2-1.62,20.49-6.78,33.5-25.6,34.82-46.22,2.22-34.59-18.63-58.29-53.29-58.54ZM69.12,138c-1.68-.17-3.42-.17-5.02-.54-14.6-3.33-23.34-18.71-20.45-35.83,1.9-11.26,9.36-20.02,19.8-22.9,8.87-2.44,16.68-1.14,22.91,4.13,8.49,7.19,11.91,17.49,9.95,30.54-2.19,14.58-13.31,24.47-27.2,24.6Z"/>
  <text class="cls-6" transform="translate(301.11 187.36) scale(.86 .98) skewX(-14.18)"><tspan class="cls-1" x="0" y="0">P</tspan><tspan x="24.08" y="0">RESS</tspan></text>
</svg>