<?xml version="1.0" encoding="UTF-8"?>
<svg id="Layer_1" data-name="Layer 1" xmlns="http://www.w3.org/2000/svg" viewBox="0 0 295.62 282.47">
  <defs>
    <style>
      .cls-1 {
        fill: #2d5a9d;
        stroke-width: 0px;
      }
    </style>
  </defs>
  <path class="cls-1" d="M147.9,246.41c-17.31-.05-32.27-2.84-44.8-12.78-13.7-10.87-19.23-25.54-17.39-42.85,1.85-17.33,11.57-30.11,24.85-40.33,15.53-11.95,32.34-22.08,48.51-33.13,25.15-17.18,50.45-34.13,75.71-51.15,5.03-3.39,5.25-3.22,7.1,2.76,7.18,23.27-2.27,51.55-31.75,62.64-9.96,3.75-20.4,5.85-30.38,9.52-14.73,5.41-28.42,12.47-39.36,24.03-5.84,6.17-9.96,13.13-9.15,22.09.71,7.77,5.95,12.69,13.87,13.19,7.07.45,13.53-1.34,19.34-5.27,11.07-7.51,22.08-15.11,33.05-22.77,2.04-1.43,4.05-2.16,6.59-2.13,12.08.11,24.17.05,36.25.04,4.5,0,4.57,0,3.18,4.55-3.69,12.15-9.71,23.1-17.59,32.99-14.81,18.59-33.8,30.61-57.03,35.96-7.5,1.73-15.06,2.48-21.02,2.65Z"/>
  <path class="cls-1" d="M81.79,221.64c-7.44-4.6-13.1-10.81-18.1-17.66-14.98-20.5-20.86-43.58-18.38-68.63,4.44-44.82,37.6-79.11,78.22-87.8,19.89-4.26,39.4-2.97,58.47,4.24,1.67.63,4.16,1.08,4.45,2.57.34,1.76-2.2,2.54-3.58,3.56-23.83,17.59-47.93,34.8-71.32,52.98-13.91,10.82-26,23.39-33.67,39.47-9.98,20.92-11.4,42.18-.94,63.5.68,1.39,1.53,2.7,2.35,4.02.8,1.27,1.67,2.5,2.5,3.75Z"/>
</svg>